<svg xmlns="http://www.w3.org/2000/svg" viewBox="0 0 476 363"><defs><style>.a{fill:#fff;}.b,.d{fill:#f946e0;}.c{fill:#21a7f9;}.d{stroke:#21a7f9;stroke-miterlimit:10;stroke-width:7px;}</style></defs><title>Artboard 3</title><path class="a" d="M8.32,11.05H54.4q21.84,0,33.08,3.4a32.8,32.8,0,0,1,18.16,13.76q6.92,10.36,6.91,33.38,0,15.57-4.88,21.71T88.41,92.73q16,3.63,21.73,12t5.7,25.74V147q0,18-4.11,26.68a22.21,22.21,0,0,1-13.11,11.85q-9,3.18-36.87,3.19H8.32Z"/><path class="a" d="M178.6,11.05V153.13h28.08v35.55H132.41V11.05Z"/><path class="a" d="M328,11.05l-26.49,80.2,29,97.43H282.77l-18.71-76.15v76.15H217.87V11.05h46.19v69l20.58-69Z"/><path class="b" d="M316.11,233.05c-.63.38-1.28.74-1.93,1.08a44.1,44.1,0,0,1-6.43,2.75,50.68,50.68,0,0,1-14,2.65l3.13-11.7"/><path class="c" d="M289.14,243.28l4.38-16.36,6.78,1.81-1.82,6.81a44.91,44.91,0,0,0,8.13-2,40.51,40.51,0,0,0,5.94-2.54c.61-.31,1.2-.65,1.76-1l3.6,6c-.67.41-1.38.8-2.1,1.18a47.7,47.7,0,0,1-6.93,3A54.14,54.14,0,0,1,294,243Z"/><path class="b" d="M317.3,232.31c-.39.26-.79.5-1.19.74"/><path class="c" d="M317.92,236.06l-3.61-6c.36-.22.72-.44,1.07-.67l3.84,5.88C318.79,235.53,318.36,235.8,317.92,236.06Z"/><path class="b" d="M330,163.13a15.86,15.86,0,0,1,9.1-16.4,15.21,15.21,0,0,1,6.15-1.46,14.93,14.93,0,0,1,7.07,1.63,17.27,17.27,0,0,1,5.63,4.56,24,24,0,0,1,3.3,5.45,33.53,33.53,0,0,1,1.79,5.24c.22.84.38,1.68.54,2.5s.27,1.52.38,2.29a44.7,44.7,0,0,1,.51,4.62c.16,1.55.12,3.09.13,4.64a60.39,60.39,0,0,1-24.44,47.65A51.33,51.33,0,0,1,324,231.59a45,45,0,0,1-8.64,1.51,33.76,33.76,0,0,1-8.69-.34c2.15-2,4.2-3.82,6.14-5.66s3.76-3.67,5.48-5.5a102.13,102.13,0,0,0,9.1-11.06A90.92,90.92,0,0,0,339.28,187a82.24,82.24,0,0,0,3.2-12.58c.34-2.15.7-4.31.87-6.5,0-.55.11-1.11.16-1.65l.12-1.42c.06-.91.08-1.74.09-2.45s0-1.28,0-1.7.12-.69.15-1a1.22,1.22,0,0,0-.27-1,3.09,3.09,0,0,0-1.66-.87,9.75,9.75,0,0,0-5.66.68A23.25,23.25,0,0,0,330,163.13Z"/><path class="c" d="M312.21,236.74a34.9,34.9,0,0,1-6.16-.52L299.11,235l5.17-4.8c.88-.82,1.74-1.61,2.59-2.38,1.21-1.11,2.39-2.18,3.52-3.26,1.81-1.71,3.61-3.51,5.34-5.36a98.63,98.63,0,0,0,8.8-10.68A87.27,87.27,0,0,0,336,185.92a80.71,80.71,0,0,0,3.06-12l.08-.48c.31-2,.6-3.83.75-5.7,0-.39.07-.77.11-1.15l.17-1.92c.05-.79.07-1.57.08-2.2,0-.47,0-.9,0-1.26a7.32,7.32,0,0,0-2.57.58,20.13,20.13,0,0,0-5.22,3.92l-5.13,5-.8-7.08a19.36,19.36,0,0,1,11.07-20,18.7,18.7,0,0,1,7.59-1.81,18.29,18.29,0,0,1,8.75,2,20.66,20.66,0,0,1,6.75,5.48,27.29,27.29,0,0,1,3.79,6.25,35,35,0,0,1,2,5.77c.24.9.42,1.76.6,2.71l.06.35c.12.7.24,1.39.35,2.1.23,1.42.41,3,.53,4.84a38,38,0,0,1,.14,3.94v1a64,64,0,0,1-25.93,50.54A54.4,54.4,0,0,1,324.94,235a49.35,49.35,0,0,1-9.31,1.63C314.45,236.7,313.31,236.74,312.21,236.74Zm35-75.81c0,.37,0,.88,0,1.49v.08c0,.69,0,1.62-.1,2.65l-.19,2.16c0,.31-.07.62-.09.93-.17,2.14-.5,4.23-.82,6.24L346,175a86.41,86.41,0,0,1-3.34,13.16,95.3,95.3,0,0,1-12.35,24.41A106.39,106.39,0,0,1,320.84,224c-1.8,1.92-3.67,3.79-5.55,5.58a42.31,42.31,0,0,0,7.78-1.38,47.56,47.56,0,0,0,15-7.21,56.85,56.85,0,0,0,23-44.83v-.95c0-1.16,0-2.26-.11-3.31v-.13c-.11-1.6-.26-3-.47-4.26-.11-.71-.22-1.35-.33-2l0-.28c-.15-.77-.29-1.48-.48-2.19a28.76,28.76,0,0,0-1.6-4.71,20.59,20.59,0,0,0-2.82-4.67,13.81,13.81,0,0,0-4.45-3.62,11.47,11.47,0,0,0-5.42-1.27,11.83,11.83,0,0,0-4.76,1.13,12.78,12.78,0,0,0-5.74,5.4l0,0a13.2,13.2,0,0,1,7.88-.89,6.6,6.6,0,0,1,3.55,2,4.65,4.65,0,0,1,1.09,3.49l0,.17c0,.24-.06.46-.1.68Z"/><path class="b" d="M253.81,240.26c.82-1.36,1.62-2.75,2.47-4.08"/><path class="c" d="M256.82,242.07l-6-3.62.74-1.25c.57-.95,1.15-1.95,1.78-2.92l5.91,3.79c-.56.87-1.09,1.76-1.65,2.71C257.34,241.21,257.08,241.64,256.82,242.07Z"/><path class="b" d="M259.67,245.43l-1,.42c-1.5.59-3,1.18-4.54,1.72s-3.1,1.06-4.75,1.47c.63-1.58,1.35-3,2.09-4.51s1.53-2.86,2.31-4.27"/><path class="c" d="M243.61,254.11l2.54-6.37c.71-1.79,1.52-3.41,2.22-4.8s1.49-2.8,2.23-4.13l.15-.26,6.13,3.43-.15.26-.44.78.79-.31,1.22-.51,2.74,6.47-1.38.57c-1.4.56-2.85,1.13-4.35,1.65s-3.18,1.09-5.05,1.56Z"/><path class="b" d="M263.07,244c-1.11.52-2.26,1-3.4,1.48"/><path class="c" d="M261,248.67l-2.74-6.47.38-.16c1-.43,2-.84,2.91-1.27l3,6.36c-1.05.49-2.11.94-3.14,1.38Z"/><path class="b" d="M256.28,236.18c.84-1.34,1.71-2.65,2.59-4l8.77,9.4a80.56,80.56,0,0,1-8.26,11.66,62.7,62.7,0,0,1-5.27,5.46,55.14,55.14,0,0,1-6.34,4.89c-.56.38-1.17.73-1.76,1.09s-1.19.72-1.82,1c-1.27.63-2.52,1.28-3.87,1.82s-2.7,1-4.08,1.47c-.69.24-1.41.39-2.12.57s-1.39.36-2.18.5a40.65,40.65,0,0,1-18.05-.9,42.26,42.26,0,0,1-15.42-8.07,33.64,33.64,0,0,1-10.34-14.51,27.54,27.54,0,0,1-1.18-4.36,25.3,25.3,0,0,1-.46-4.42,23.61,23.61,0,0,1,1.4-8.64,21.31,21.31,0,0,1,4.24-7,19.51,19.51,0,0,1,6.14-4.49c-1.14,4.85-1.32,9.17-.31,12.67a17.4,17.4,0,0,0,2,4.71,16.79,16.79,0,0,0,1.39,2,17.3,17.3,0,0,0,1.55,1.75,25.51,25.51,0,0,0,7.48,5.19,37,37,0,0,0,8.93,2.85,29.07,29.07,0,0,0,8.56.26c.32,0,.74-.13,1.1-.19a10.92,10.92,0,0,0,1.14-.22c.76-.18,1.53-.33,2.29-.59a38.67,38.67,0,0,0,4.72-1.66l1.22-.51c.41-.18.82-.39,1.23-.58.84-.35,1.66-.83,2.52-1.24,1.69-.9,3.43-1.84,5.21-2.9,3.55-2.07,7.28-4.45,11.24-6.75l8.77,9.39c-1.4.7-2.82,1.39-4.26,2"/><path class="c" d="M224.94,274.26a45.06,45.06,0,0,1-12-1.65,45.68,45.68,0,0,1-16.73-8.75,37.31,37.31,0,0,1-11.37-16,26.93,26.93,0,0,1-1.21-4.34l-.12-.52A29.52,29.52,0,0,1,183,238a27.37,27.37,0,0,1,1.61-10,24.92,24.92,0,0,1,5-8.2,22.92,22.92,0,0,1,7.27-5.31l6.49-2.93-1.63,6.93c-1,4.44-1.16,8.1-.36,10.9a14.37,14.37,0,0,0,1.65,3.86,14.87,14.87,0,0,0,1.06,1.56c.21.24.41.49.61.73a5.14,5.14,0,0,0,.56.64l.17.16a22.34,22.34,0,0,0,6.48,4.5,34.34,34.34,0,0,0,8.1,2.59,25.58,25.58,0,0,0,7.48.23l.18,0,.24,0a4.76,4.76,0,0,1,.52-.1l.41-.08a1.91,1.91,0,0,0,.33-.06l.62-.14c.56-.13,1.1-.25,1.57-.41l.21-.06a34.81,34.81,0,0,0,4.29-1.52l1.2-.5.57-.27.53-.25.13-.06c.39-.17.84-.4,1.31-.64l1-.49c1.57-.84,17.91-12.42,17.91-12.42L275,246c-2.68,4.37-16.21,13.18-18.5,15.32l-.07.06a55.94,55.94,0,0,1-6.71,5.18c-.56.39-1.12.71-1.66,1l-.26.16-.59.34c-.42.25-.9.54-1.43.81l-.68.34c-1.08.54-2.2,1.1-3.44,1.59-1.45.62-2.94,1.12-4.34,1.57-.6.21-1.24.36-1.8.5l-.62.15-.63.16c-.51.12-1.08.27-1.75.38A42.73,42.73,0,0,1,224.94,274.26Zm-31.15-48.58a18.57,18.57,0,0,0-2.61,4.77,20.11,20.11,0,0,0-1.18,7.33,22.15,22.15,0,0,0,.39,3.77l.11.52a20.55,20.55,0,0,0,.88,3.25l.06.16a30.11,30.11,0,0,0,9.25,13,38.59,38.59,0,0,0,14.16,7.41,36.81,36.81,0,0,0,16.47.82c.43-.07.81-.17,1.25-.28l.74-.17.55-.14c.45-.11.88-.22,1.24-.34,1.37-.44,2.65-.87,3.84-1.38l.09,0c1-.38,1.92-.86,2.92-1.36l.68-.34c.32-.16.65-.36,1-.56s.42-.26.64-.38l.23-.14c.47-.27.92-.54,1.29-.79l.08-.06a35.11,35.11,0,0,0,5.89-4.55c9.25-9.14,6.7-18.6,6.7-18.6l-.72-.45c-1.13.68-2.24,1.35-3.32,2-1.84,1.12-3.58,2.18-5.33,3.19s-3.65,2.08-5.32,3l-.13.07-.86.43c-.55.29-1.12.58-1.74.84l-.37.18q-.45.22-.9.42l-1.26.53a41.85,41.85,0,0,1-5.07,1.79c-.77.25-1.5.41-2.16.56l-.26.06c-.42.11-.78.17-1.06.22l-.27,0-.16,0-.27.05c-.28.05-.62.12-1,.16a33.29,33.29,0,0,1-9.52-.3,41.3,41.3,0,0,1-9.81-3.13,29,29,0,0,1-8.39-5.8,11.24,11.24,0,0,1-1.34-1.47l-.42-.5-.1-.12a18.91,18.91,0,0,1-1.68-2.43,20.75,20.75,0,0,1-2.41-5.62A21.35,21.35,0,0,1,193.79,225.68Z"/><path class="b" d="M108.21,130.61c2.43,6.28,4.59,12.62,6.66,19s4,12.74,5.93,19.13c3.77,12.8,7.19,25.67,10.44,38.58s6.19,25.89,9,38.91c1.4,6.51,2.72,13,4,19.55l3.72,19.39a140.41,140.41,0,0,0,4.35,17.3,45.67,45.67,0,0,0,6.64,13.3c.32.48.7.83,1,1.27l.52.63.58.55c.38.35.73.8,1.14,1.12s.79.65,1.19,1l.29.25.33.21.64.43A10.08,10.08,0,0,0,166,322c.47.25.93.51,1.39.77l1.47.62a25.2,25.2,0,0,0,6.43,1.66l.85.13c.29,0,.58,0,.87.05l1.75.11c1.18-.06,2.37,0,3.58-.14a39.8,39.8,0,0,0,7.29-1.27l1.82-.54c.6-.19,1.19-.43,1.79-.65s1.2-.44,1.79-.7l1.78-.76a59.2,59.2,0,0,0,7-4,73.23,73.23,0,0,0,6.81-5.14c2.24-1.86,4.43-3.87,6.59-6s4.28-4.34,6.41-6.6c4.25-4.54,8.41-9.34,12.8-14a192.84,192.84,0,0,1-7.76,18.37,114.12,114.12,0,0,1-10.26,17.3,84,84,0,0,1-6.53,7.86,66.9,66.9,0,0,1-7.71,7,55.25,55.25,0,0,1-8.93,5.45,49.41,49.41,0,0,1-9.84,3.63,47.54,47.54,0,0,1-5.21,1c-.89.11-1.78.18-2.68.26-.45,0-.9.09-1.35.11h-1.36a40.16,40.16,0,0,1-11.1-1.35l-2.78-.83-2.75-1.1a21.08,21.08,0,0,1-2.71-1.31l-1.33-.72-.66-.37-.65-.43a44.78,44.78,0,0,1-9.37-8l-2-2.38c-.63-.81-1.21-1.66-1.81-2.49s-1.15-1.7-1.68-2.56-1.09-1.73-1.55-2.61L135,319.72,133.72,317c-.43-.9-.78-1.8-1.15-2.7s-.75-1.8-1.06-2.69c-1.35-3.61-2.37-7.18-3.33-10.72s-1.67-7-2.37-10.46-1.26-6.79-1.83-10l-1.68-9.85c-1.09-6.58-2.16-13.16-3.15-19.75q-3-19.79-5.34-39.7c-1.52-13.29-2.88-26.62-3.88-40-.48-6.71-.92-13.42-1.22-20.17S108.17,137.43,108.21,130.61Z"/><path class="c" d="M173.82,350.18a44.39,44.39,0,0,1-11.06-1.48l-.11,0-3.11-.93-2.71-1.09a23.5,23.5,0,0,1-3-1.42l-2.42-1.34-.6-.39a48.15,48.15,0,0,1-10.09-8.64l-.09-.11-2.08-2.46c-.5-.64-1-1.28-1.39-1.9l-.51-.71c-.69-.93-1.27-1.88-1.83-2.79l-.42-.69a24.76,24.76,0,0,1-1.26-2.17l-1.48-2.77-1.25-2.69c-.37-.76-.68-1.52-1-2.26l-.51-1.25c-.28-.7-.58-1.42-.84-2.18-1.46-3.9-2.53-7.72-3.42-11-1-3.92-1.79-7.6-2.42-10.69-.69-3.58-1.3-7-1.86-10.14l-1.68-9.87c-1.28-7.7-2.28-14-3.15-19.81-2.11-13.93-3.86-27-5.36-39.82-1.77-15.45-3-28.21-3.89-40.17-.43-6-.91-13-1.23-20.28-.26-5.57-.55-12.94-.5-20.51l.11-19,6.87,17.77c2.7,7,5,13.9,6.73,19.16,2.23,6.79,4.26,13.53,6,19.22,3.38,11.45,6.71,23.76,10.48,38.73,3.08,12.36,6.11,25.49,9,39,1.23,5.74,2.51,12,4,19.6l3.73,19.41a132.63,132.63,0,0,0,4.23,16.82,42.38,42.38,0,0,0,6.08,12.27l.13.18c0,.08.19.23.32.38s.36.4.53.61l.37.45.41.39c.21.19.41.41.61.62s.2.22.31.31c.43.34.86.7,1.29,1.07l.22.17,1.06.7a4.64,4.64,0,0,0,.46.31l.19.1,1.28.7,1.22.52a21.11,21.11,0,0,0,5.45,1.41l.17,0,.77.12.25,0,.41,0,1.53.09c.42,0,.84,0,1.26,0a16.62,16.62,0,0,0,1.81-.08l.23,0a35.63,35.63,0,0,0,6.57-1.16l1.72-.5c.31-.1.6-.21.9-.33l.75-.27c.57-.2,1.06-.39,1.51-.6l.07,0,1.71-.73a53.76,53.76,0,0,0,6.48-3.75,71.64,71.64,0,0,0,6.45-4.87c2-1.7,4.13-3.59,6.41-5.83,1.95-1.86,3.77-3.8,5.71-5.84l.62-.66c1.9-2,3.86-4.2,5.75-6.3,2.28-2.53,4.63-5.14,7-7.69l12-12.72-6,16.45a189.64,189.64,0,0,1-7.91,18.72,117.44,117.44,0,0,1-10.57,17.84,90.51,90.51,0,0,1-6.79,8.18,72.72,72.72,0,0,1-8.16,7.36l-.07.05a57.87,57.87,0,0,1-9.53,5.81,51.93,51.93,0,0,1-10.48,3.87,43.13,43.13,0,0,1-4.62.95l-1.09.18c-.72.09-1.44.15-2.16.22l-1,.09-1.08.08h-.11l-1.36,0Zm-9.18-8.46a36.38,36.38,0,0,0,10,1.22l1.36,0,.67-.05,1.06-.09,1.89-.19.82-.14a34.56,34.56,0,0,0,3.91-.8l.16,0a45.55,45.55,0,0,0,9.11-3.37,50.19,50.19,0,0,0,8.3-5.07,64.51,64.51,0,0,0,7.27-6.55,79.61,79.61,0,0,0,6.22-7.5,107.09,107.09,0,0,0,9.36-15.58c-1.66,1.75-3.37,3.53-5.12,5.21-2.39,2.35-4.62,4.38-6.78,6.16a75.92,75.92,0,0,1-7.09,5.36,62.36,62.36,0,0,1-7.44,4.3l-.15.06-1.75.75c-.64.29-1.31.55-2.05.81l-.6.22c-.42.16-.85.32-1.28.46l-2,.58a43.32,43.32,0,0,1-7.85,1.38,22.41,22.41,0,0,1-2.61.13c-.39,0-.77,0-1.15,0h-.2l-2.23-.13-.78-.06-.91-.14a28.29,28.29,0,0,1-7.26-1.87l-.1,0-1.88-.82-1.21-.67a12.21,12.21,0,0,1-1.45-.88l-1.56-1.08-.3-.25c-.37-.32-.73-.62-1.1-.91a9.62,9.62,0,0,1-1-1c-.1-.1-.2-.21-.3-.3l-.92-.91-.57-.7-.28-.32a9.2,9.2,0,0,1-.87-1.07,49.45,49.45,0,0,1-7.14-14.28,139.76,139.76,0,0,1-4.46-17.73l-3.73-19.41c-1.5-7.57-2.78-13.77-4-19.48-2.87-13.48-5.88-26.52-8.94-38.79-3.75-14.87-7-27.09-10.4-38.43-1.41-4.75-3.06-10.23-4.86-15.85.31,6.06.71,11.9,1.07,16.95.88,11.85,2.11,24.53,3.86,39.87,1.49,12.77,3.23,25.72,5.33,39.57.87,5.79,1.86,12,3.13,19.69l1.68,9.84c.54,3.1,1.14,6.48,1.82,10,.6,3,1.36,6.53,2.31,10.24.84,3.09,1.86,6.73,3.22,10.36l0,.09c.2.58.45,1.19.72,1.85l.51,1.25c.27.67.53,1.3.82,1.9l1.23,2.64,1.36,2.57c.29.56.64,1.12,1,1.7.15.25.31.49.45.74.49.8,1,1.57,1.49,2.28.21.29.39.55.58.8.39.55.76,1.08,1.14,1.56l1.91,2.28a41.39,41.39,0,0,0,8.56,7.34l1.15.69,1.45.79a18,18,0,0,0,2.09,1l.09,0,2.6,1Z"/><path class="b" d="M309.4,303.68c-1.85-4.69-3.54-9.44-5.17-14.21s-3.2-9.57-4.73-14.38c-3-9.62-5.86-19.34-8.58-29.09s-5.26-19.57-7.69-29.44c-1.22-4.92-2.39-9.87-3.55-14.82L276.31,187A123.74,123.74,0,0,0,272.67,174a38,38,0,0,0-4.85-9.83c-.23-.34-.49-.59-.73-.9l-.36-.45-.39-.39c-.26-.25-.5-.57-.77-.79s-.53-.45-.79-.69l-.2-.17-.22-.14-.42-.29a6.4,6.4,0,0,0-.87-.56c-.31-.16-.61-.32-.91-.5l-1-.38a13,13,0,0,0-4.1-.85l-.54,0-.55,0-1.1,0a21.75,21.75,0,0,0-2.22.35,21,21,0,0,0-4.49,1.46l-1.1.54c-.37.18-.73.41-1.09.62a12,12,0,0,0-1.08.66l-1.07.7a38.1,38.1,0,0,0-4.15,3.58,53.72,53.72,0,0,0-4,4.42c-1.31,1.58-2.56,3.28-3.8,5.06s-2.44,3.63-3.65,5.52c-2.41,3.79-4.75,7.77-7.24,11.64,1.1-5,2.35-9.88,3.86-14.69a98.68,98.68,0,0,1,5.48-14,69.88,69.88,0,0,1,3.65-6.5,49.6,49.6,0,0,1,4.45-5.88,36.54,36.54,0,0,1,5.28-4.8,28.69,28.69,0,0,1,5.95-3.45,26,26,0,0,1,3.2-1.15c.55-.14,1.1-.26,1.66-.38.28-.06.55-.13.83-.17l.86-.1a20.25,20.25,0,0,1,7,.31l1.78.45,1.77.67a11.7,11.7,0,0,1,1.76.83l.87.47.44.24.42.29a28.85,28.85,0,0,1,6.28,5.57l1.38,1.7c.44.59.85,1.2,1.27,1.81s.8,1.23,1.18,1.86.78,1.26,1.11,1.92l1,1.95.93,2c.32.67.58,1.33.86,2s.56,1.34.8,2c1,2.69,1.87,5.38,2.66,8.05s1.42,5.31,2,7.92,1.15,5.16,1.68,7.63l1.58,7.49c1,5,2.05,10,3,15q2.92,15.08,5.47,30.3c1.65,10.15,3.22,20.35,4.56,30.63.66,5.15,1.3,10.3,1.84,15.49S309.06,298.41,309.4,303.68Z"/><path class="c" d="M256.67,138.53a22.63,22.63,0,0,1,7,.42h.07l2,.52,1.75.66a13.25,13.25,0,0,1,1.93.9l1.58.87.4.27a31,31,0,0,1,6.76,6l.07.07,1.42,1.77c.35.46.67.92,1,1.37l.35.52c.48.67.89,1.36,1.29,2l.3.5c.31.5.62,1,.91,1.59l1.07,2.05.92,2c.27.56.51,1.13.74,1.68l.38.93c.22.52.44,1.06.64,1.62,1.13,2.92,2,5.8,2.73,8.27.84,3,1.52,5.74,2.08,8.08.63,2.72,1.19,5.31,1.7,7.71l1.58,7.51c1.21,5.86,2.17,10.65,3,15.08,2.07,10.61,3.86,20.55,5.48,30.38,1.93,11.81,3.39,21.58,4.58,30.76.59,4.58,1.27,10,1.86,15.57.46,4.28,1,9.95,1.41,15.8l.95,14.71-5.24-13.26c-2.06-5.2-3.87-10.4-5.23-14.35-1.75-5.09-3.38-10.16-4.75-14.44-2.72-8.62-5.46-17.89-8.62-29.2-2.58-9.34-5.17-19.27-7.7-29.54-1.08-4.35-2.21-9.08-3.57-14.87l-3.37-14.73a120.16,120.16,0,0,0-3.53-12.71,35.18,35.18,0,0,0-4.46-9.06l-.09-.13-.22-.28c-.12-.14-.25-.28-.36-.43l-.26-.33-.27-.27a5.77,5.77,0,0,1-.42-.44l-.21-.22c-.29-.23-.58-.48-.86-.74l-.15-.11-.7-.48a2.2,2.2,0,0,0-.31-.2l-.12-.06-.84-.47-.79-.31a10.69,10.69,0,0,0-3.48-.73H257l-.49,0h-.41l-1,0-.79.1a8,8,0,0,0-1.12.18l-.14,0a19.42,19.42,0,0,0-4.05,1.33L248,163l-.54.31-.45.26c-.35.2-.64.38-.91.57l-.05,0-1,.68a35.88,35.88,0,0,0-3.85,3.32,49.21,49.21,0,0,0-3.76,4.19c-1.2,1.45-2.39,3-3.7,4.93-1.11,1.56-2.15,3.18-3.25,4.89l-.35.54c-1.08,1.7-2.18,3.5-3.25,5.25-1.29,2.1-2.62,4.27-4,6.4L216,204.93l2.87-13.1c1.2-5.44,2.48-10.34,3.94-15a101,101,0,0,1,5.65-14.47,69.87,69.87,0,0,1,3.8-6.76,51.85,51.85,0,0,1,4.7-6.22l0-.05a37.24,37.24,0,0,1,5.64-5.11,30.55,30.55,0,0,1,6.33-3.68,23.47,23.47,0,0,1,2.84-1.05l.67-.21c.44-.11.89-.21,1.34-.3l.65-.15.67-.13h.06l.85-.1Zm6.19,5.93a18.47,18.47,0,0,0-6.33-.28l-.85.1-.41.09-.66.14c-.39.09-.79.17-1.17.27l-.5.16a19.73,19.73,0,0,0-2.4.87l-.1.05a26.16,26.16,0,0,0-5.51,3.21,32.82,32.82,0,0,0-4.91,4.46,47.77,47.77,0,0,0-4.19,5.54,66.52,66.52,0,0,0-3.49,6.19,95.27,95.27,0,0,0-5,12.65c.94-1.46,1.91-2.95,2.91-4.36,1.37-2,2.66-3.69,3.91-5.21a55,55,0,0,1,4.14-4.6,40.83,40.83,0,0,1,4.42-3.81l.09-.06,1.05-.69c.38-.26.79-.51,1.23-.76l.37-.21.77-.44,1.22-.58a23,23,0,0,1,4.83-1.59,12.14,12.14,0,0,1,1.62-.27l.72-.09.12,0,1.4-.05h.49l.58.05a14.85,14.85,0,0,1,4.63,1l.06,0,1.22.5c.26.16.53.3.79.44a6.35,6.35,0,0,1,.95.59l1,.72.2.18.73.63a7.47,7.47,0,0,1,.69.68c.07.07.13.15.2.21l.62.65.4.5.19.23a7.78,7.78,0,0,1,.6.77,40.55,40.55,0,0,1,5.22,10.54,127.59,127.59,0,0,1,3.74,13.4L281.86,201c1.34,5.75,2.47,10.45,3.54,14.78,2.51,10.21,5.09,20.08,7.66,29.35,3.14,11.23,5.85,20.44,8.55,29,1.14,3.57,2.46,7.7,3.89,11.91-.52-4.65-1.08-9.14-1.58-13-1.19-9.09-2.63-18.79-4.55-30.52-1.61-9.76-3.39-19.64-5.44-30.19-.86-4.41-1.81-9.18-3-15l-1.57-7.48c-.51-2.36-1.06-4.92-1.67-7.57-.54-2.25-1.2-5-2-7.75-.69-2.33-1.53-5.07-2.57-7.78l0-.07c-.15-.43-.34-.89-.54-1.38l-.39-.93c-.2-.5-.4-1-.61-1.41l-.91-2-1-1.89c-.22-.42-.46-.82-.72-1.25l-.32-.54c-.35-.58-.69-1.15-1.05-1.66l-.4-.58c-.28-.4-.54-.78-.8-1.13L275,152.25a26.52,26.52,0,0,0-5.74-5.1l-.75-.46-1-.51a9.68,9.68,0,0,0-1.36-.65l-.06,0-1.67-.63Z"/><path class="b" d="M146.24,209.4a15.21,15.21,0,0,1,7.69-4.77,14.23,14.23,0,0,1,10.23,1.55,15.11,15.11,0,0,1,4.83,4.31,17.38,17.38,0,0,1,3.06,7.19,21.27,21.27,0,0,1,0,7.92,27.64,27.64,0,0,1-2.13,6.51,35.1,35.1,0,0,1-2.88,5.07c-.5.77-1,1.47-1.56,2.16s-1,1.26-1.5,1.87a46.77,46.77,0,0,1-3.18,3.55c-1.08,1.18-2.27,2.19-3.44,3.25a55.11,55.11,0,0,1-15.68,9.62,51,51,0,0,1-35.18,1.43,48.42,48.42,0,0,1-15.63-8.68A46.64,46.64,0,0,1,84.45,244a38,38,0,0,1-5-7.72c2.81.51,5.44,1,8,1.47s5.06.77,7.48,1a87.3,87.3,0,0,0,13.89.38,79,79,0,0,0,25-5.59,74.75,74.75,0,0,0,11.46-5.73c1.83-1.15,3.68-2.3,5.44-3.63.44-.33.91-.65,1.35-1l1.14-.86c.73-.55,1.37-1.1,1.91-1.57s1-.87,1.3-1.13.59-.37.86-.56a1.34,1.34,0,0,0,.62-.93,3.75,3.75,0,0,0-.36-2,10.23,10.23,0,0,0-3.94-4.41A20.4,20.4,0,0,0,146.24,209.4Z"/><path class="c" d="M121.85,265.15a52,52,0,0,1-33.33-12,51.06,51.06,0,0,1-6.87-6.92,41.79,41.79,0,0,1-5.47-8.45l-3.07-6.38,7,1.26,3.38.63c1.57.3,3.09.59,4.58.84,2.38.4,4.82.73,7.26,1a84.14,84.14,0,0,0,13.31.37,74.92,74.92,0,0,0,23.84-5.34,72.11,72.11,0,0,0,10.91-5.45l.4-.25c1.67-1.06,3.25-2.05,4.75-3.18.31-.24.63-.46.94-.69l.47-.33,1.08-.81c.63-.49,1.22-1,1.7-1.4s.88-.79,1.2-1.06a7.09,7.09,0,0,0-2.25-2.22,17.14,17.14,0,0,0-6-1.8l-6.55-1,4.42-4.94a18.62,18.62,0,0,1,9.5-5.87,17.82,17.82,0,0,1,12.87,1.9,19.1,19.1,0,0,1,6,5.33,21,21,0,0,1,3.7,8.68,24.94,24.94,0,0,1-.05,9.25,31.69,31.69,0,0,1-2.4,7.36,39.83,39.83,0,0,1-3.15,5.55c-.54.82-1.08,1.54-1.69,2.34l-.26.33c-.45.56-.88,1.11-1.34,1.66a49.35,49.35,0,0,1-3.34,3.73,39.68,39.68,0,0,1-2.92,2.79l-.71.64A58.67,58.67,0,0,1,143,261,56.55,56.55,0,0,1,121.85,265.15ZM86.94,241.29l.3.38a44,44,0,0,0,5.89,5.93,44.51,44.51,0,0,0,14.46,8,47.41,47.41,0,0,0,32.7-1.35,51.7,51.7,0,0,0,14.65-9l.71-.64a32.15,32.15,0,0,0,2.44-2.33l.09-.09c1.15-1.17,2.11-2.25,2.94-3.28.46-.55.86-1.06,1.28-1.58l.19-.25c.52-.68,1-1.29,1.4-1.93a32.34,32.34,0,0,0,2.61-4.59,24.6,24.6,0,0,0,1.86-5.69,17.56,17.56,0,0,0,0-6.54,14.06,14.06,0,0,0-2.4-5.71,11.82,11.82,0,0,0-3.72-3.34,10.65,10.65,0,0,0-7.65-1.17l-.08,0c.27.14.53.29.78.44a13.72,13.72,0,0,1,5.41,6.11,7.27,7.27,0,0,1,.58,4.05,4.83,4.83,0,0,1-1.94,3.14l-.14.11-.6.38-.11.06c-.29.24-.67.58-1.12,1l-.06.06c-.53.45-1.24,1.07-2.07,1.7l-1.76,1.31c-.26.17-.51.35-.75.53-1.74,1.32-3.53,2.44-5.25,3.53l-.44.28a80.16,80.16,0,0,1-12.05,6A82.93,82.93,0,0,1,109,242.72a91.56,91.56,0,0,1-14.47-.4C92,242.06,89.44,241.71,86.94,241.29Z"/><path class="b" d="M445.81,166.26c.82-1.36,1.62-2.75,2.47-4.08"/><path class="c" d="M448.82,168.07l-6-3.62.74-1.25c.57-.95,1.15-1.95,1.78-2.92l5.91,3.79c-.56.87-1.09,1.76-1.65,2.71C449.34,167.21,449.08,167.64,448.82,168.07Z"/><path class="b" d="M451.67,171.43l-1,.42c-1.5.59-3,1.18-4.54,1.72s-3.1,1.06-4.75,1.47c.63-1.58,1.35-3,2.09-4.51s1.53-2.86,2.31-4.27"/><path class="c" d="M435.61,180.11l2.54-6.37c.71-1.79,1.52-3.41,2.22-4.8s1.49-2.8,2.23-4.13l.15-.26,6.13,3.43-.15.26-.44.78.79-.31,1.22-.51,2.74,6.47-1.38.57c-1.4.56-2.85,1.13-4.35,1.65s-3.18,1.09-5.05,1.56Z"/><path class="b" d="M455.07,170c-1.11.52-2.26,1-3.4,1.48"/><path class="c" d="M453,174.67l-2.74-6.47.38-.16c1-.43,2-.84,2.91-1.27l3,6.36c-1.05.49-2.11.94-3.14,1.38Z"/><path class="b" d="M448.28,162.18c.84-1.34,1.71-2.65,2.59-4l8.77,9.4a80.56,80.56,0,0,1-8.26,11.66,62.7,62.7,0,0,1-5.27,5.46,55.14,55.14,0,0,1-6.34,4.89c-.56.38-1.17.73-1.76,1.09s-1.19.72-1.82,1c-1.27.63-2.52,1.28-3.87,1.82s-2.7,1-4.08,1.47c-.69.24-1.41.39-2.12.57s-1.39.36-2.18.5a40.65,40.65,0,0,1-18.05-.9,42.26,42.26,0,0,1-15.42-8.07,33.64,33.64,0,0,1-10.34-14.51,27.54,27.54,0,0,1-1.18-4.36,25.3,25.3,0,0,1-.46-4.42,23.61,23.61,0,0,1,1.4-8.64,21.31,21.31,0,0,1,4.24-7,19.51,19.51,0,0,1,6.14-4.49c-1.14,4.85-1.32,9.17-.31,12.67a17.4,17.4,0,0,0,2,4.71,16.79,16.79,0,0,0,1.39,2,17.3,17.3,0,0,0,1.55,1.75,25.51,25.51,0,0,0,7.48,5.19,37,37,0,0,0,8.93,2.85,29.07,29.07,0,0,0,8.56.26c.32,0,.74-.13,1.1-.19a10.92,10.92,0,0,0,1.14-.22c.76-.18,1.53-.33,2.29-.59a38.67,38.67,0,0,0,4.72-1.66l1.22-.51c.41-.18.82-.39,1.23-.58.84-.35,1.66-.83,2.52-1.24,1.69-.9,3.43-1.84,5.21-2.9,3.55-2.07,7.28-4.45,11.24-6.75l8.77,9.39c-1.4.7-2.82,1.39-4.26,2"/><path class="c" d="M416.94,200.26a45.06,45.06,0,0,1-12-1.65,45.68,45.68,0,0,1-16.73-8.75,37.31,37.31,0,0,1-11.37-16,26.93,26.93,0,0,1-1.21-4.34l-.12-.52A29.52,29.52,0,0,1,375,164a27.37,27.37,0,0,1,1.61-10,24.92,24.92,0,0,1,5-8.2,22.92,22.92,0,0,1,7.27-5.31l6.49-2.93-1.63,6.93c-1,4.44-1.16,8.1-.36,10.9a14.37,14.37,0,0,0,1.65,3.86,14.87,14.87,0,0,0,1.06,1.56c.21.24.41.49.61.73a5.14,5.14,0,0,0,.56.64l.17.16a22.34,22.34,0,0,0,6.48,4.5,34.34,34.34,0,0,0,8.1,2.59,25.58,25.58,0,0,0,7.48.23l.18,0,.24,0a4.76,4.76,0,0,1,.52-.1l.41-.08.33-.06.62-.14c.56-.13,1.1-.25,1.57-.41l.21-.06a34.81,34.81,0,0,0,4.29-1.52l1.2-.5.57-.27.53-.25.13-.06c.39-.17.84-.4,1.31-.64l1-.49c1.57-.84,17.91-12.42,17.91-12.42L467,172c-2.68,4.37-16.21,13.18-18.5,15.32l-.07.06a55.94,55.94,0,0,1-6.71,5.18c-.56.39-1.12.71-1.66,1l-.26.16-.59.34c-.42.25-.9.54-1.43.81l-.68.34c-1.08.54-2.2,1.1-3.44,1.59-1.45.62-2.94,1.12-4.34,1.57-.6.21-1.24.36-1.8.5l-.62.15-.63.16c-.51.12-1.08.27-1.75.38A42.73,42.73,0,0,1,416.94,200.26Zm-31.15-48.58a18.57,18.57,0,0,0-2.61,4.77,20.11,20.11,0,0,0-1.18,7.33,22.15,22.15,0,0,0,.39,3.77l.11.52a20.55,20.55,0,0,0,.88,3.25l.06.16a30.11,30.11,0,0,0,9.25,13,38.59,38.59,0,0,0,14.16,7.41,36.81,36.81,0,0,0,16.47.82c.43-.07.81-.17,1.25-.28l.74-.17.55-.14c.45-.11.88-.22,1.24-.34,1.37-.44,2.65-.87,3.84-1.38l.09,0c1-.38,1.92-.86,2.92-1.36l.68-.34c.32-.16.65-.36,1-.56s.42-.26.64-.38l.23-.14c.47-.27.92-.54,1.29-.79l.08-.06a35.11,35.11,0,0,0,5.89-4.55c9.25-9.14,6.7-18.6,6.7-18.6l-.72-.45c-1.13.68-2.24,1.35-3.32,2-1.84,1.12-3.58,2.18-5.33,3.19s-3.65,2.08-5.32,3l-.13.07-.86.43c-.55.29-1.12.58-1.74.84l-.37.18q-.45.22-.9.42l-1.26.53a41.85,41.85,0,0,1-5.07,1.79c-.77.25-1.5.41-2.16.56l-.26.06c-.42.11-.78.17-1.06.22l-.27,0-.16,0-.27.05c-.28.05-.62.12-1,.16a33.29,33.29,0,0,1-9.52-.3,41.3,41.3,0,0,1-9.81-3.13,29,29,0,0,1-8.39-5.8,11.24,11.24,0,0,1-1.34-1.47l-.42-.5-.1-.12a18.91,18.91,0,0,1-1.68-2.43,20.75,20.75,0,0,1-2.41-5.62A21.35,21.35,0,0,1,385.79,151.68Z"/><path class="b" d="M321.19,236.64l.74-2.75c9.48,1.89,18.52,4.36,27.25,6.76s17.15,4.67,25.5,6.36c2.08.44,4.17.81,6.24,1.17s4.11.66,6.18.89a122.49,122.49,0,0,0,12.67.85,98.39,98.39,0,0,0,13.16-.68,104.84,104.84,0,0,0,14.14-2.76,37.07,37.07,0,0,1-10.21,11.77,52.51,52.51,0,0,1-14,7.67,65.58,65.58,0,0,1-15.6,3.65c-1.33.17-2.67.22-4,.32s-2.68.06-4,.1-2.64-.08-4-.13-2.61-.2-3.92-.31a105.62,105.62,0,0,1-29.54-7.73,149.1,149.1,0,0,1-25.71-14l-52.57-35.3L320,233.38a100.15,100.15,0,0,0,11.44,3.41q3,.71,6.22,1.28c2.13.38,4.33.72,6.62,1.1a32.42,32.42,0,0,1-2.69,2"/><path class="c" d="M379.27,273.5h-.07c-.94,0-1.87-.05-2.8-.09l-1.21,0c-1,0-1.91-.12-2.79-.2l-1.3-.12H371a109.93,109.93,0,0,1-30.51-8,151.39,151.39,0,0,1-26.32-14.33l-77-51.71,84.05,31.05.52.2.87.17c7.3,1.45,14.45,3.28,21.09,5.07l8,2.17c8.39,2.3,16,4.32,23.72,5.88,2.11.44,4.26.82,6.15,1.16s3.87.62,6,.85a117.47,117.47,0,0,0,12.32.83,93.87,93.87,0,0,0,12.7-.66,97.87,97.87,0,0,0,13.68-2.67l7.64-2-3.65,7A40.29,40.29,0,0,1,419,261a55.26,55.26,0,0,1-14.92,8.2,69.08,69.08,0,0,1-16.43,3.85c-1,.12-2,.19-3,.25l-1.16.08c-1.05.06-2,.07-2.93.09l-1.28,0Zm-7.58-7.44,1.34.11c.84.08,1.64.15,2.42.19l1.2,0c.87,0,1.72.06,2.59.07h1.29c.89,0,1.72,0,2.55-.07l1.17-.09c.91-.06,1.77-.11,2.6-.22a61.76,61.76,0,0,0,14.82-3.46,48.23,48.23,0,0,0,13-7.14,42.26,42.26,0,0,0,4-3.55c-1.83.33-3.6.59-5.35.8a101.1,101.1,0,0,1-13.63.7,125.07,125.07,0,0,1-13-.88c-2.23-.24-4.45-.59-6.33-.9s-4.2-.74-6.4-1.2c-8.34-1.7-41.29-9.77-43.32-10.24a103.06,103.06,0,0,1-11.86-3.54L290,226l28.13,18.89a144,144,0,0,0,25.11,13.67A102.49,102.49,0,0,0,371.69,266.06Z"/><path class="d" d="M191,188.22c0,5.4-3.83,9.88-8.53,10s-8.47-4.14-8.47-9.5,3.79-9.85,8.47-10S191,182.82,191,188.22Z"/><path class="d" d="M395,121.22c0,5.4-3.83,9.88-8.53,10s-8.47-4.14-8.47-9.5,3.79-9.85,8.47-10S395,115.82,395,121.22Z"/></svg>